<svg width="665" height="664" viewBox="0 0 665 664" fill="none" xmlns="http://www.w3.org/2000/svg">
<path fill-rule="evenodd" clip-rule="evenodd" d="M0.447384 44.7443L0.947384 38.2443L1.94738 33.2443L4.44738 25.7443L7.44738 19.7443L8.44738 18.7443L9.44738 16.7443L15.4474 10.7443L16.4474 10.2443L16.9474 9.24429L17.4474 8.74429L19.4474 7.74429L21.4474 6.24429L23.4474 5.24429L26.4474 4.24429L33.4474 1.74429L37.4474 0.744286C232.782 1.57762 623.447 2.74429 623.447 0.744286C623.447 -1.25571 631.447 1.24429 635.447 2.74429L647.447 8.74429L652.947 14.2443L656.447 19.7443L660.947 27.7443L662.947 35.2443L664.947 47.2443V99.2443L660.947 107.244L656.447 118.244L647.447 127.244L627.447 135.744L619.447 136.744H490.448L484.948 139.244L478.948 142.244L472.948 147.744L469.948 153.244L465.948 163.244L464.948 169.744V225.744L466.948 235.744L469.948 242.244L476.948 249.244L484.948 253.744L494.448 255.244L627.447 256.244L633.447 258.244L638.447 259.744L644.947 263.244L650.447 268.244L655.947 274.244L660.447 282.244L661.947 286.744L664.947 301.244L663.447 400.744L660.447 413.744L655.947 422.244L648.447 430.244L640.447 434.744L628.947 438.244L523.447 434.744L495.948 426.744L480.948 413.744L476.448 408.744L472.448 406.744L469.948 406.244H468.948C468.614 406.577 467.848 407.244 467.448 407.244C466.247 408.044 465.614 408.911 465.448 409.244L464.948 411.744V413.744C465.281 413.411 465.748 413.144 464.948 414.744C464.147 416.344 464.281 418.744 464.448 419.744L462.948 633.244L460.448 640.744L455.948 647.244L446.948 654.744L437.448 660.244L424.448 663.744H327.447L317.447 660.244L304.947 651.244L296.947 639.244L292.447 627.744V608.744L290.447 527.744L287.447 522.244L285.447 518.744L282.947 515.244L279.947 513.744L274.947 510.744L261.447 506.244H201.947L192.447 508.244L185.447 512.244L178.947 518.744L174.447 527.744L172.947 533.744L169.447 633.244L162.447 647.244L157.447 654.744L145.947 660.244L131.947 663.744H38.4474L28.4474 660.244L20.4474 656.744L16.9474 654.244L12.4474 648.744L7.44738 642.244L2.94738 631.744L0.447384 622.744L1.44043 543.744C-1.05262 544.244 0.447384 44.7443 0.447384 44.7443ZM189.927 152.134C190.615 151.063 191.143 150.241 192.041 148.845C192.938 147.45 193.076 146.943 195.262 145.092C197.447 143.241 205.263 137.822 209.461 135.244C213.659 132.666 215.081 132.018 218.293 131.59C221.505 131.162 219.875 131.363 220.892 131.244C221.908 131.125 224.851 130.902 227.392 130.744C229.933 130.585 260.132 131.068 261.892 131.244C263.651 131.419 264.808 131.454 266.392 131.744C267.976 132.033 269.019 132.375 270.392 132.744C271.765 133.113 272.546 133.285 273.892 133.744C275.237 134.203 277.242 135.14 278.301 135.581C279.36 136.022 280.378 136.553 281.346 137.169C282.314 137.785 282.924 138.173 283.91 138.801C284.896 139.428 285.825 140.141 286.687 140.931C287.548 141.72 289.632 143.63 290.335 144.275C291.039 144.92 291.695 145.614 292.3 146.353C292.904 147.092 293.147 147.388 294.242 148.727C295.337 150.066 296.255 151.541 296.97 153.116C297.686 154.69 297.076 153.349 297.491 154.262C297.906 155.174 298.42 156.038 298.932 156.899C299.445 157.761 298.999 157.012 298.999 157.012C299.204 157.357 299.421 157.724 299.605 158.05C299.79 158.376 299.892 158.344 299.892 158.744C299.892 159.144 300.278 160.049 300.595 160.577C300.912 161.104 301.16 161.516 301.269 162.035C301.378 162.553 302.178 166.351 302.463 167.706C302.748 169.061 302.892 170.441 302.892 171.826C302.892 173.211 302.892 357.149 302.892 358.385C302.892 359.622 302.777 360.856 302.549 362.071C302.322 363.286 302.024 364.873 301.772 366.219C301.519 367.566 301.129 368.882 300.608 370.149C300.086 371.415 298.858 374.835 297.892 376.744C296.927 378.652 295.625 380.63 295.132 381.475C294.64 382.32 294.085 383.127 293.474 383.891C292.863 384.655 292.847 384.676 291.867 385.9C290.887 387.125 289.767 388.23 288.528 389.193C287.29 390.156 286.95 390.481 285.892 391.244C284.834 392.007 279.019 395.223 277.969 395.831C276.92 396.438 275.817 396.949 274.675 397.357C273.533 397.765 273.75 397.687 272.012 398.308C270.274 398.929 268.457 399.306 266.616 399.429C264.774 399.552 263.737 399.634 261.892 399.744C260.046 399.854 224.288 399.744 221.743 399.744C219.199 399.744 216.678 399.258 214.315 398.313C211.953 397.368 211.5 397.164 210.392 396.744C209.284 396.324 209.298 396.346 207.541 395.707C205.783 395.068 204.124 394.186 202.612 393.086C201.1 391.986 200.538 391.669 199.391 390.744C198.245 389.819 197.689 389.23 196.572 388.238C195.455 387.245 194.453 386.13 193.585 384.914C192.716 383.698 192.855 383.898 192.391 383.244C191.928 382.59 190.961 381.2 190.135 380.02C189.308 378.839 188.612 377.573 188.058 376.243C187.503 374.913 187.353 374.552 186.969 373.629C186.584 372.707 186.27 371.757 186.027 370.788C185.785 369.818 184.885 366.219 184.488 364.633C184.092 363.046 183.891 361.417 183.891 359.782C183.891 358.147 183.516 177.174 183.891 174.244C184.267 171.313 184.822 167.35 184.891 166.744C184.961 166.137 184.847 167.142 185.064 165.189C185.281 163.236 185.785 161.326 186.559 159.52C187.333 157.713 186.763 159.047 186.891 158.744C187.02 158.44 187.708 156.703 188.181 155.521C188.653 154.339 189.238 153.205 189.927 152.134Z" fill="#A958FF"/>
</svg>
